REM DIRINDEX 1\2\4,1\2\5,1\3\6,1\3\7,1\3\8
REM DIRNAME folder01,folder02,folder03,folder04,folder05,folder06,folder07,folder08
TITLE ""
FILE "LV5_097_WORDS.mp3" MP3
  TRACK 01 AUDIO
    TITLE "0:"
    INDEX 01 00:00:00
  TRACK 02 AUDIO
    TITLE "6:cjc094_3328"
    INDEX 01 00:00:07
  TRACK 03 AUDIO
    TITLE "0:"
    INDEX 01 00:02:14
  TRACK 04 AUDIO
    TITLE "7:cjc094_3329"
    INDEX 01 00:03:00
  TRACK 05 AUDIO
    TITLE "0:"
    INDEX 01 00:04:11
  TRACK 06 AUDIO
    TITLE "8:cjc094_3330"
    INDEX 01 00:04:25
  TRACK 07 AUDIO
    TITLE "0:"
    INDEX 01 00:06:71
  TRACK 08 AUDIO
    TITLE "7:cjc094_3331"
    INDEX 01 00:07:45
  TRACK 09 AUDIO
    TITLE "0:"
    INDEX 01 00:08:30
  TRACK 10 AUDIO
    TITLE "8:cjc094_3332"
    INDEX 01 00:08:60
  TRACK 11 AUDIO
    TITLE "0:"
    INDEX 01 00:11:29
  TRACK 12 AUDIO
    TITLE "7:cjc094_3333"
    INDEX 01 00:12:07
  TRACK 13 AUDIO
    TITLE "0:"
    INDEX 01 00:13:08
  TRACK 14 AUDIO
    TITLE "8:cjc094_3334"
    INDEX 01 00:13:24
  TRACK 15 AUDIO
    TITLE "0:"
    INDEX 01 00:16:49
  TRACK 16 AUDIO
    TITLE "7:cjc094_3335"
    INDEX 01 00:17:18
  TRACK 17 AUDIO
    TITLE "0:"
    INDEX 01 00:18:17
  TRACK 18 AUDIO
    TITLE "8:cjc094_3336"
    INDEX 01 00:18:35
  TRACK 19 AUDIO
    TITLE "0:"
    INDEX 01 00:19:38
  TRACK 20 AUDIO
    TITLE "7:cjc094_3337"
    INDEX 01 00:20:12
  TRACK 21 AUDIO
    TITLE "0:"
    INDEX 01 00:21:15
  TRACK 22 AUDIO
    TITLE "8:cjc094_3338"
    INDEX 01 00:21:39
  TRACK 23 AUDIO
    TITLE "0:"
    INDEX 01 00:23:20
  TRACK 24 AUDIO
    TITLE "7:cjc094_3339"
    INDEX 01 00:23:63
  TRACK 25 AUDIO
    TITLE "0:"
    INDEX 01 00:24:74
  TRACK 26 AUDIO
    TITLE "8:cjc094_3340"
    INDEX 01 00:25:15
  TRACK 27 AUDIO
    TITLE "0:"
    INDEX 01 00:26:11
  TRACK 28 AUDIO
    TITLE "7:cjc094_3341"
    INDEX 01 00:26:62
  TRACK 29 AUDIO
    TITLE "0:"
    INDEX 01 00:28:02
  TRACK 30 AUDIO
    TITLE "8:cjc094_3342"
    INDEX 01 00:28:17
  TRACK 31 AUDIO
    TITLE "0:"
    INDEX 01 00:29:29
  TRACK 32 AUDIO
    TITLE "7:cjc094_3343"
    INDEX 01 00:30:05
  TRACK 33 AUDIO
    TITLE "0:"
    INDEX 01 00:31:14
  TRACK 34 AUDIO
    TITLE "8:cjc094_3344"
    INDEX 01 00:31:29
  TRACK 35 AUDIO
    TITLE "0:"
    INDEX 01 00:32:35
  TRACK 36 AUDIO
    TITLE "7:cjc094_3345"
    INDEX 01 00:33:07
  TRACK 37 AUDIO
    TITLE "0:"
    INDEX 01 00:34:28
  TRACK 38 AUDIO
    TITLE "8:cjc094_3346"
    INDEX 01 00:34:47
  TRACK 39 AUDIO
    TITLE "0:"
    INDEX 01 00:36:11
  TRACK 40 AUDIO
    TITLE "7:cjc094_3347"
    INDEX 01 00:36:60
  TRACK 41 AUDIO
    TITLE "0:"
    INDEX 01 00:38:14
  TRACK 42 AUDIO
    TITLE "8:cjc094_3348"
    INDEX 01 00:38:35
  TRACK 43 AUDIO
    TITLE "0:"
    INDEX 01 00:41:67
  TRACK 44 AUDIO
    TITLE "7:cjc094_3349"
    INDEX 01 00:42:43
  TRACK 45 AUDIO
    TITLE "0:"
    INDEX 01 00:43:44
  TRACK 46 AUDIO
    TITLE "8:cjc094_3350"
    INDEX 01 00:43:62
  TRACK 47 AUDIO
    TITLE "0:"
    INDEX 01 00:45:02
  TRACK 48 AUDIO
    TITLE "7:cjc094_3351"
    INDEX 01 00:45:49
  TRACK 49 AUDIO
    TITLE "0:"
    INDEX 01 00:46:56
  TRACK 50 AUDIO
    TITLE "8:cjc094_3352"
    INDEX 01 00:47:01
  TRACK 51 AUDIO
    TITLE "0:"
    INDEX 01 00:48:04
  TRACK 52 AUDIO
    TITLE "7:cjc094_3353"
    INDEX 01 00:48:57
  TRACK 53 AUDIO
    TITLE "0:"
    INDEX 01 00:49:65
  TRACK 54 AUDIO
    TITLE "8:cjc094_3354"
    INDEX 01 00:50:03
  TRACK 55 AUDIO
    TITLE "0:"
    INDEX 01 00:51:05
  TRACK 56 AUDIO
    TITLE "7:cjc094_3355"
    INDEX 01 00:51:58
  TRACK 57 AUDIO
    TITLE "0:"
    INDEX 01 00:52:59
  TRACK 58 AUDIO
    TITLE "8:cjc094_3356"
    INDEX 01 00:53:00
  TRACK 59 AUDIO
    TITLE "0:"
    INDEX 01 00:54:74
  TRACK 60 AUDIO
    TITLE "7:cjc094_3357"
    INDEX 01 00:55:48
  TRACK 61 AUDIO
    TITLE "0:"
    INDEX 01 00:56:53
  TRACK 62 AUDIO
    TITLE "8:cjc094_3358"
    INDEX 01 00:56:72
  TRACK 63 AUDIO
    TITLE "0:"
    INDEX 01 00:58:69
  TRACK 64 AUDIO
    TITLE "7:cjc094_3359"
    INDEX 01 00:59:41
  TRACK 65 AUDIO
    TITLE "0:"
    INDEX 01 01:00:49
  TRACK 66 AUDIO
    TITLE "8:cjc094_3360"
    INDEX 01 01:00:66
  TRACK 67 AUDIO
    TITLE "0:"
    INDEX 01 01:02:20
